<svg xmlns="http://www.w3.org/2000/svg" width="256" height="256" viewBox="0 0 256 256" fill="none">

  <!-- Background: dark navy rounded square -->
  <rect width="256" height="256" rx="36" fill="#0B1929" />

  <!--
    Original mark: 39w × 45h
    Scale to 148px tall: 148/45 = 3.2889
    Scaled width: 39 × 3.2889 = 128.3
    Offset X: (256 - 128.3) / 2 = 63.85
    Offset Y: (256 - 148) / 2 = 54
  -->
  <path transform="translate(63.85, 54) scale(3.2889)"
    d="M9.82245 44.9958L1.16688 44.9687C0.521839 44.9667 0 44.4432 0 43.7981V32.0736C0 31.6176 0.199465 31.1843 0.545953 30.8878L9.43412 23.2815C10.0968 22.7144 10.9373 22.4049 11.8093 22.4198C17.0994 22.5101 26.5167 22.5539 26.5167 10.937H12.0217C11.1597 10.937 10.461 11.6357 10.461 12.4977V19.4747C10.461 20.1211 9.9369 20.6452 9.29043 20.6452H1.18543C0.538954 20.6452 0.0148805 20.1211 0.0148805 19.4747V11.6654C0.0148805 11.0189 0.538954 10.4949 1.18543 10.4949H8.49447C9.35643 10.4949 10.0552 9.79609 10.0552 8.93412V1.17006C10.0552 0.523585 10.5787 -0.000533398 11.2252 -8.68657e-05C13.6788 0.00160794 16.7376 0.00917573 19.3893 0.0319961C26.5882 0.093951 33.5183 2.26901 36.9953 8.85818C41.6356 16.8179 38.1833 29.1546 27.0229 31.9104C24.6718 32.491 22.5085 32.5458 20.1779 32.5443C17.2519 32.5423 14.2833 32.5572 12.5428 32.568C11.6858 32.5734 10.9967 33.2699 10.9967 34.1269V43.8253C10.9967 44.4732 10.4704 44.9979 9.82245 44.9958Z"
    fill="url(#mark-gradient)" />

  <defs>
    <!-- Gradient defined in final 256x256 space: top=54, bottom=202, centerX=128 -->
    <linearGradient id="mark-gradient" x1="128" y1="54" x2="128" y2="202" gradientUnits="userSpaceOnUse">
      <stop offset="0" stop-color="#5B9BD5" />
      <stop offset="0.197" stop-color="#6EB2E8" />
      <stop offset="0.423" stop-color="#52C8D8" />
      <stop offset="0.505" stop-color="#2A7AB5" />
      <stop offset="0.716" stop-color="#3ABFCA" />
      <stop offset="1" stop-color="#45D9B8" />
    </linearGradient>
  </defs>

</svg>